# xmcd
#
# Track frame offsets: 
#        150
#        31669
#        45961
#        77394
#        98750
#        115279
#        154327
#        184182
#        210137
#        233147
#        255650
#
# Disc length: 4150 seconds
#
# Revision: 0
# Processed by: cddbd v1.5.2PL0 Copyright (c) Steve Scherf et al.
# Submitted via: ExactAudioCopy v1.0b3
#
DISCID=7710340b
DTITLE=Dexys - Nowhere is Home
DYEAR=2014
DGENRE=Pop
TTITLE0=Now
TTITLE1=Lost
TTITLE2=Me
TTITLE3=She Got A Wiggle 
TTITLE4=You
TTITLE5=I'm Thinking Of You 
TTITLE6=I'm Always Going To Love You 
TTITLE7=Incapable Of Love 
TTITLE8=Nowhere Is Home 
TTITLE9=Free 
TTITLE10=It's Ok John Joe 
EXTD=
EXTT0=
EXTT1=
EXTT2=
EXTT3=
EXTT4=
EXTT5=
EXTT6=
EXTT7=
EXTT8=
EXTT9=
EXTT10=
PLAYORDER=
